<svg width="16" height="19" viewBox="0 0 16 19" fill="none" xmlns="http://www.w3.org/2000/svg">
<path d="M13.7 5.2C12.8669 4.08227 11.7231 3.23453 10.4114 2.7625C9.0997 2.29047 7.67804 2.21505 6.32374 2.54562C4.96943 2.8762 3.74241 3.59816 2.79569 4.62146C1.84897 5.64476 1.22445 6.92412 1 8.3M14 1.5V5.5H10M2.3 13.8C3.13312 14.9177 4.27686 15.7655 5.58858 16.2375C6.9003 16.7095 8.32196 16.785 9.67626 16.4544C11.0306 16.1238 12.2576 15.4018 13.2043 14.3785C14.151 13.3552 14.7756 12.0759 15 10.7M2 17.5V13.5H6" stroke="#3C83E6" stroke-width="2" stroke-linecap="round" stroke-linejoin="round"/>
</svg>
